<svg width="64" height="64" viewBox="0 0 64 64" fill="none" xmlns="http://www.w3.org/2000/svg">
<path fill-rule="evenodd" clip-rule="evenodd" d="M18.6867 18.6872C19.7282 17.6458 21.4166 17.646 22.4579 18.6874L32.0002 28.231L41.5425 18.6874C42.5838 17.646 44.2723 17.6458 45.3138 18.6872C46.3552 19.7285 46.3553 21.4169 45.314 22.4584L35.7712 32.0025L45.3131 41.5457C46.3544 42.5871 46.3543 44.2756 45.3128 45.3169C44.2713 46.3582 42.5829 46.3581 41.5416 45.3167L32.0002 35.774L22.4589 45.3167C21.4175 46.3581 19.7291 46.3582 18.6876 45.3169C17.6462 44.2756 17.6461 42.5871 18.6874 41.5457L28.2292 32.0025L18.6864 22.4584C17.6451 21.4169 17.6452 19.7285 18.6867 18.6872Z" fill="#7C7E92" fill-opacity="0.56"/>
<circle cx="32" cy="32" r="29.335" stroke="#7C7E92" stroke-opacity="0.56" stroke-width="5.33"/>
</svg>
